999
dxflib 2.0.4.8
  0
SECTION
  2
HEADER
  9
$ACADVER
  1
AC1009
  9
$GRIDUNIT
 10
0.0
 20
0.0
  9
$DIMASZ
 40
0.25
  9
$DIMGAP
 40
0.0625
  9
$LUNITS
 70
2
  9
$AUPREC
 70
2
  9
$SPLINESEGS
 70
8
  9
$DIMEXO
 40
0.0625
  9
$GRIDMODE
 70
1
  9
$DIMTXT
 40
0.25
  9
$LUPREC
 70
4
  9
$DIMSTYLE
  2
Standard
  9
$PLIMMIN
 10
0.0
 20
0.0
  9
$PLIMMAX
 10
8.2677165354330722
 20
11.6929133858267722
  9
$DIMEXE
 40
0.125
  9
$AUNITS
 70
0
  0
ENDSEC
  0
SECTION
  2
TABLES
  0
TABLE
  2
VPORT
 70
1
  0
VPORT
  2
*Active
 70
0
 10
0.0
 20
0.0
 11
1.0
 21
1.0
 12
286.3055555555554861
 22
148.5
 13
0.0
 23
0.0
 14
10.0
 24
10.0
 15
10.0
 25
10.0
 16
0.0
 26
0.0
 36
1.0
 17
0.0
 27
0.0
 37
0.0
 40
297.0
 41
1.92798353909465
 42
50.0
 43
0.0
 44
0.0
 50
0.0
 51
0.0
 71
0
 72
100
 73
1
 74
3
 75
1
 76
1
 77
0
 78
0
  0
ENDTAB
  0
TABLE
  2
LTYPE
 70
19
  0
LTYPE
  2
CONTINUOUS
 70
0
  3
Solid line
 72
65
 73
0
 40
0.0
  0
LTYPE
  2
DOT
 70
0
  3
Dot . . . . . . . . . . . . . . . . . . . . . .
 72
65
 73
2
 40
6.3499999999999996
 49
0.0
 49
-6.3499999999999996
  0
LTYPE
  2
DOT2
 70
0
  3
Dot (.5x) .....................................
 72
65
 73
2
 40
3.1749999999999998
 49
0.0
 49
-3.1749999999999998
  0
LTYPE
  2
DOTX2
 70
0
  3
Dot (2x) .  .  .  .  .  .  .  .  .  .  .  .  .
 72
65
 73
2
 40
12.6999999999999993
 49
0.0
 49
-12.6999999999999993
  0
LTYPE
  2
DASHED
 70
0
  3
Dashed __ __ __ __ __ __ __ __ __ __ __ __ __ _
 72
65
 73
2
 40
19.0500000000000007
 49
12.6999999999999993
 49
-6.3499999999999996
  0
LTYPE
  2
DASHED2
 70
0
  3
Dashed (.5x) _ _ _ _ _ _ _ _ _ _ _ _ _ _ _ _ _
 72
65
 73
2
 40
9.5250000000000004
 49
6.3499999999999996
 49
-3.1749999999999998
  0
LTYPE
  2
DASHEDX2
 70
0
  3
Dashed (2x) ____  ____  ____  ____  ____  ___
 72
65
 73
2
 40
38.1000000000000014
 49
25.3999999999999986
 49
-12.6999999999999993
  0
LTYPE
  2
DASHDOT
 70
0
  3
Dash dot __ . __ . __ . __ . __ . __ . __ . __
 72
65
 73
4
 40
25.3999999999999986
 49
12.6999999999999993
 49
-6.3499999999999996
 49
0.0
 49
-6.3499999999999996
  0
LTYPE
  2
DASHDOT2
 70
0
  3
Dash dot (.5x) _._._._._._._._._._._._._._._.
 72
65
 73
4
 40
12.6999999999999993
 49
6.3499999999999996
 49
-3.1749999999999998
 49
0.0
 49
-3.1749999999999998
  0
LTYPE
  2
DASHDOTX2
 70
0
  3
Dash dot (2x) ____  .  ____  .  ____  .  ___
 72
65
 73
4
 40
50.7999999999999972
 49
25.3999999999999986
 49
-12.6999999999999993
 49
0.0
 49
-12.6999999999999993
  0
LTYPE
  2
DIVIDE
 70
0
  3
Divide ____ . . ____ . . ____ . . ____ . . ____
 72
65
 73
6
 40
31.75
 49
12.6999999999999993
 49
-6.3499999999999996
 49
0.0
 49
-6.3499999999999996
 49
0.0
 49
-6.3499999999999996
  0
LTYPE
  2
DIVIDE2
 70
0
  3
Divide (.5x) __..__..__..__..__..__..__..__.._
 72
65
 73
6
 40
15.875
 49
6.3499999999999996
 49
-3.1749999999999998
 49
0.0
 49
-3.1749999999999998
 49
0.0
 49
-3.1749999999999998
  0
LTYPE
  2
DIVIDEX2
 70
0
  3
Divide (2x) ________  .  .  ________  .  .  _
 72
65
 73
6
 40
63.5
 49
25.3999999999999986
 49
-12.6999999999999993
 49
0.0
 49
-12.6999999999999993
 49
0.0
 49
-12.6999999999999993
  0
LTYPE
  2
CENTER
 70
0
  3
Center ____ _ ____ _ ____ _ ____ _ ____ _ ____
 72
65
 73
4
 40
50.7999999999999972
 49
31.75
 49
-6.3499999999999996
 49
6.3499999999999996
 49
-6.3499999999999996
  0
LTYPE
  2
CENTER2
 70
0
  3
Center (.5x) ___ _ ___ _ ___ _ ___ _ ___ _ ___
 72
65
 73
4
 40
28.5749999999999993
 49
19.0500000000000007
 49
-3.1749999999999998
 49
3.1749999999999998
 49
-3.1749999999999998
  0
LTYPE
  2
CENTERX2
 70
0
  3
Center (2x) ________  __  ________  __  _____
 72
65
 73
4
 40
101.5999999999999943
 49
63.5
 49
-12.6999999999999993
 49
12.6999999999999993
 49
-12.6999999999999993
  0
LTYPE
  2
BORDER
 70
0
  3
Border __ __ . __ __ . __ __ . __ __ . __ __ .
 72
65
 73
6
 40
44.4500000000000028
 49
12.6999999999999993
 49
-6.3499999999999996
 49
12.6999999999999993
 49
-6.3499999999999996
 49
0.0
 49
-6.3499999999999996
  0
LTYPE
  2
BORDER2
 70
0
  3
Border (.5x) __.__.__.__.__.__.__.__.__.__.__.
 72
65
 73
6
 40
22.2250000000000014
 49
6.3499999999999996
 49
-3.1749999999999998
 49
6.3499999999999996
 49
-3.1749999999999998
 49
0.0
 49
-3.1749999999999998
  0
LTYPE
  2
BORDERX2
 70
0
  3
Border (2x) ____  ____  .  ____  ____  .  ___
 72
65
 73
6
 40
88.9000000000000057
 49
25.3999999999999986
 49
-12.6999999999999993
 49
25.3999999999999986
 49
-12.6999999999999993
 49
0.0
 49
-12.6999999999999993
  0
ENDTAB
  0
TABLE
  2
LAYER
 70
18
  0
LAYER
  2
0
 70
0
 62
7
  6
CONTINUOUS
  0
LAYER
  2
guard_boundary
 70
0
 62
2
  6
CONTINUOUS
  0
LAYER
  2
guard_clearance_hole
 70
0
 62
2
  6
CONTINUOUS
  0
LAYER
  2
dimensions
 70
0
 62
1
  6
CONTINUOUS
  0
LAYER
  2
mount_boundary
 70
0
 62
3
  6
CONTINUOUS
  0
LAYER
  2
mount_carriage_thru_hole
 70
0
 62
3
  6
CONTINUOUS
  0
LAYER
  2
adapter_boundary
 70
0
 62
5
  6
CONTINUOUS
  0
LAYER
  2
mount_magnet_thru_hole
 70
0
 62
3
  6
CONTINUOUS
  0
LAYER
  2
guard_tap_hole_6-32
 70
0
 62
2
  6
CONTINUOUS
  0
LAYER
  2
adapter_magnet_pocket
 70
0
 62
5
  6
CONTINUOUS
  0
LAYER
  2
adapter_tap_hole_6-32
 70
0
 62
5
  6
CONTINUOUS
  0
LAYER
  2
mount_thru_hole_6-32
 70
0
 62
3
  6
CONTINUOUS
  0
LAYER
  2
stock_boundary
 70
0
 62
8
  6
CONTINUOUS
  0
LAYER
  2
adapter_thru_hole_6-32
 70
0
 62
5
  6
CONTINUOUS
  0
LAYER
  2
mount_tap_hole_6-32
 70
0
 62
3
  6
CONTINUOUS
  0
LAYER
  2
stock_thru_hole_6-32
 70
0
 62
8
  6
CONTINUOUS
  0
LAYER
  2
stock_screw_head
 70
0
 62
8
  6
CONTINUOUS
  0
LAYER
  2
guard_magnet_pocket
 70
0
 62
2
  6
CONTINUOUS
  0
ENDTAB
  0
TABLE
  2
STYLE
 70
1
  0
STYLE
  2
Standard
 70
0
 40
0.0
 41
0.75
 50
0.0
 71
0
 42
2.5
  3
txt
  4

  0
ENDTAB
  0
TABLE
  2
VIEW
 70
0
  0
ENDTAB
  0
TABLE
  2
UCS
 70
0
  0
ENDTAB
  0
TABLE
  2
APPID
 70
1
  0
APPID
  2
ACAD
 70
0
  0
ENDTAB
  0
TABLE
  2
DIMSTYLE
 70
1
  0
DIMSTYLE
  2
Standard
  3

  4

  5

  6

  7

 40
1.0
 41
0.25
 42
0.0625
 43
3.75
 44
0.125
 45
0.0
 46
0.0
 47
0.0
 48
0.0
 70
0
 71
0
 72
0
 73
0
 74
0
 75
0
 76
0
 77
1
 78
8
140
0.25
141
2.5
142
0.0
143
0.03937007874016
144
1.0
145
0.0
146
1.0
147
0.0625
170
0
171
3
172
1
173
0
174
0
175
0
176
0
177
0
178
0
  0
ENDTAB
  0
ENDSEC
  0
SECTION
  2
BLOCKS
  0
ENDSEC
  0
SECTION
  2
ENTITIES
  0
LINE
  8
stock_boundary
 10
0.0
 20
0.0
 30
0.0
 11
24.0
 21
0.0
 31
0.0
  0
LINE
  8
stock_boundary
 10
24.0
 20
0.0
 30
0.0
 11
24.0
 21
12.0
 31
0.0
  0
LINE
  8
stock_boundary
 10
24.0
 20
12.0
 30
0.0
 11
0.0
 21
12.0
 31
0.0
  0
LINE
  8
stock_boundary
 10
0.0
 20
12.0
 30
0.0
 11
0.0
 21
0.0
 31
0.0
  0
CIRCLE
  8
adapter_magnet_pocket
 10
21.0862284800037258
 20
9.6485574400028185
 30
0.0
 40
0.26
  0
CIRCLE
  8
adapter_tap_hole_6-32
 10
13.5862284800037276
 20
9.6485574400028185
 30
0.0
 40
0.05325
  0
CIRCLE
  8
adapter_tap_hole_6-32
 10
21.0862284800037258
 20
9.6485574400028185
 30
0.0
 40
0.05325
  0
LINE
  8
adapter_boundary
 10
13.0862284800037276
 20
9.8985574400028185
 30
0.0
 11
13.0862284800037276
 21
9.3985574400028185
 31
0.0
  0
LINE
  8
adapter_boundary
 10
21.2112284800037258
 20
10.2735574400028185
 30
0.0
 11
13.4612284800037276
 21
10.2735574400028185
 31
0.0
  0
LINE
  8
adapter_boundary
 10
13.4612284800037276
 20
9.0235574400028185
 30
0.0
 11
21.2112284800037258
 21
9.0235574400028185
 31
0.0
  0
LINE
  8
adapter_boundary
 10
21.5862284800037258
 20
9.3985574400028185
 30
0.0
 11
21.5862284800037258
 21
9.8985574400028185
 31
0.0
  0
ARC
  8
adapter_boundary
 10
13.4612284800037276
 20
9.8985574400028185
 30
0.0
 40
0.375
 50
90.0
 51
180.0
  0
ARC
  8
adapter_boundary
 10
13.4612284800037276
 20
9.3985574400028185
 30
0.0
 40
0.375
 50
180.0
 51
270.0
  0
ARC
  8
adapter_boundary
 10
21.2112284800037258
 20
9.8985574400028185
 30
0.0
 40
0.375
 50
0.0
 51
90.0
  0
ARC
  8
adapter_boundary
 10
21.2112284800037258
 20
9.3985574400028185
 30
0.0
 40
0.375
 50
270.0
 51
0.0
  0
CIRCLE
  8
adapter_magnet_pocket
 10
13.5862284800037276
 20
9.6485574400028185
 30
0.0
 40
0.26
  0
CIRCLE
  8
adapter_thru_hole_6-32
 10
13.5862284800037276
 20
10.0735574400028192
 30
0.0
 40
0.072
  0
CIRCLE
  8
adapter_thru_hole_6-32
 10
13.5862284800037276
 20
9.2235574400028177
 30
0.0
 40
0.072
  0
CIRCLE
  8
adapter_thru_hole_6-32
 10
21.0862284800037258
 20
10.0735574400028192
 30
0.0
 40
0.072
  0
CIRCLE
  8
adapter_thru_hole_6-32
 10
21.0862284800037258
 20
9.2235574400028177
 30
0.0
 40
0.072
  0
CIRCLE
  8
adapter_thru_hole_6-32
 10
17.3362284800037258
 20
10.0735574400028192
 30
0.0
 40
0.072
  0
CIRCLE
  8
adapter_thru_hole_6-32
 10
17.3362284800037258
 20
9.2235574400028177
 30
0.0
 40
0.072
  0
CIRCLE
  8
mount_carriage_thru_hole
 10
5.2672861986369686
 20
8.709086882834594
 30
0.0
 40
0.193
  0
CIRCLE
  8
mount_carriage_thru_hole
 10
9.7672861986369668
 20
8.709086882834594
 30
0.0
 40
0.193
  0
CIRCLE
  8
mount_magnet_thru_hole
 10
11.2672861986369668
 20
10.834086882834594
 30
0.0
 40
0.26
  0
LINE
  8
mount_boundary
 10
11.3922861986369668
 20
11.459086882834594
 30
0.0
 11
3.6422861986369681
 21
11.459086882834594
 31
0.0
  0
LINE
  8
mount_boundary
 10
3.2672861986369681
 20
11.084086882834594
 30
0.0
 11
3.2672861986369681
 21
7.8340868828345931
 31
0.0
  0
LINE
  8
mount_boundary
 10
11.7672861986369668
 20
7.8340868828345931
 30
0.0
 11
11.7672861986369668
 21
11.084086882834594
 31
0.0
  0
LINE
  8
mount_boundary
 10
3.6422861986369681
 20
7.459086882834594
 30
0.0
 11
11.3922861986369668
 21
7.459086882834594
 31
0.0
  0
ARC
  8
mount_boundary
 10
3.6422861986369681
 20
11.084086882834594
 30
0.0
 40
0.375
 50
90.0
 51
180.0
  0
ARC
  8
mount_boundary
 10
11.3922861986369668
 20
11.084086882834594
 30
0.0
 40
0.375
 50
0.0
 51
90.0
  0
ARC
  8
mount_boundary
 10
3.6422861986369681
 20
7.8340868828345931
 30
0.0
 40
0.375
 50
180.0
 51
270.0
  0
ARC
  8
mount_boundary
 10
11.3922861986369668
 20
7.8340868828345931
 30
0.0
 40
0.375
 50
270.0
 51
0.0
  0
CIRCLE
  8
mount_thru_hole_6-32
 10
4.2672861986369686
 20
9.459086882834594
 30
0.0
 40
0.072
  0
CIRCLE
  8
mount_thru_hole_6-32
 10
10.7672861986369668
 20
9.459086882834594
 30
0.0
 40
0.072
  0
CIRCLE
  8
mount_magnet_thru_hole
 10
3.7672861986369681
 20
10.834086882834594
 30
0.0
 40
0.26
  0
CIRCLE
  8
mount_tap_hole_6-32
 10
3.7672861986369681
 20
11.2590868828345947
 30
0.0
 40
0.05352
  0
CIRCLE
  8
mount_tap_hole_6-32
 10
3.7672861986369681
 20
10.4090868828345933
 30
0.0
 40
0.05352
  0
CIRCLE
  8
mount_tap_hole_6-32
 10
7.5172861986369686
 20
11.2590868828345947
 30
0.0
 40
0.05352
  0
CIRCLE
  8
mount_tap_hole_6-32
 10
7.5172861986369686
 20
10.4090868828345933
 30
0.0
 40
0.05352
  0
CIRCLE
  8
mount_tap_hole_6-32
 10
11.2672861986369668
 20
11.2590868828345947
 30
0.0
 40
0.05352
  0
CIRCLE
  8
mount_tap_hole_6-32
 10
11.2672861986369668
 20
10.4090868828345933
 30
0.0
 40
0.05352
  0
CIRCLE
  8
stock_thru_hole_6-32
 10
1.0
 20
8.0
 30
0.0
 40
0.072
  0
CIRCLE
  8
stock_thru_hole_6-32
 10
1.0
 20
11.0
 30
0.0
 40
0.072
  0
CIRCLE
  8
stock_thru_hole_6-32
 10
23.0
 20
11.0
 30
0.0
 40
0.072
  0
CIRCLE
  8
stock_thru_hole_6-32
 10
23.0
 20
8.0
 30
0.0
 40
0.072
  0
CIRCLE
  8
stock_thru_hole_6-32
 10
17.0
 20
8.0
 30
0.0
 40
0.072
  0
CIRCLE
  8
guard_clearance_hole
 10
4.701360310941924
 20
1.4886907802507192
 30
0.0
 40
0.5
  0
CIRCLE
  8
guard_clearance_hole
 10
9.2013603109419222
 20
1.4886907802507192
 30
0.0
 40
0.5
  0
CIRCLE
  8
guard_tap_hole_6-32
 10
3.201360310941924
 20
3.6136907802507197
 30
0.0
 40
0.05325
  0
CIRCLE
  8
guard_tap_hole_6-32
 10
10.7013603109419222
 20
3.6136907802507197
 30
0.0
 40
0.05325
  0
LINE
  8
guard_boundary
 10
0.7013603109419234
 20
6.3636907802507192
 30
0.0
 11
0.7013603109419234
 21
0.6136907802507193
 31
0.0
  0
LINE
  8
guard_boundary
 10
23.3263603109419222
 20
6.7386907802507192
 30
0.0
 11
1.0763603109419233
 21
6.7386907802507192
 31
0.0
  0
LINE
  8
guard_boundary
 10
1.0763603109419233
 20
0.2386907802507194
 30
0.0
 11
23.3263603109419222
 21
0.2386907802507194
 31
0.0
  0
LINE
  8
guard_boundary
 10
23.7013603109419222
 20
0.6136907802507193
 30
0.0
 11
23.7013603109419222
 21
6.3636907802507192
 31
0.0
  0
ARC
  8
guard_boundary
 10
1.0763603109419233
 20
0.6136907802507193
 30
0.0
 40
0.375
 50
180.0
 51
270.0
  0
ARC
  8
guard_boundary
 10
1.0763603109419233
 20
6.3636907802507192
 30
0.0
 40
0.375
 50
90.0
 51
180.0
  0
ARC
  8
guard_boundary
 10
23.3263603109419222
 20
6.3636907802507192
 30
0.0
 40
0.375
 50
0.0
 51
90.0
  0
ARC
  8
guard_boundary
 10
23.3263603109419222
 20
0.6136907802507193
 30
0.0
 40
0.375
 50
270.0
 51
0.0
  0
CIRCLE
  8
stock_thru_hole_6-32
 10
0.15
 20
0.2
 30
0.0
 40
0.072
  0
CIRCLE
  8
guard_magnet_pocket
 10
3.201360310941924
 20
3.6136907802507197
 30
0.0
 40
0.26
  0
CIRCLE
  8
guard_magnet_pocket
 10
10.7013603109419222
 20
3.6136907802507197
 30
0.0
 40
0.26
  0
ENDSEC
  0
EOF
